<svg width="54" height="54" viewBox="0 0 54 54" fill="none" xmlns="http://www.w3.org/2000/svg">
  <circle cx="27" cy="27" r="27" fill="#E95102"/>
    <g clip-path="url(#clip0_82_577)">
      <path d="M42.8815 16.8719C40.8359 16.0139 38.7888 15.6875 36.7427 15.6875C30.2474 15.687 23.7526 18.975 17.2573 18.975C15.6284 18.975 14.0004 18.7682 12.3715 18.2514C12.1885 18.1934 12.005 18.166 11.8257 18.166C10.9181 18.166 10.125 18.8684 10.125 19.8435V36.574C10.125 37.24 10.5063 37.8713 11.1185 38.1276C13.1641 38.9861 15.2112 39.3125 17.2573 39.3125C23.7526 39.3125 30.2479 36.0245 36.7432 36.0245C38.3722 36.0245 40.0001 36.2312 41.629 36.748C41.812 36.806 41.9955 36.8335 42.1748 36.8335C43.0824 36.8335 43.8755 36.131 43.8755 35.156V18.426C43.875 17.7594 43.4937 17.1287 42.8815 16.8719ZM12.6562 20.9725C13.7173 21.2383 14.8247 21.3717 15.9637 21.4435C15.6537 22.9933 14.291 24.1614 12.6562 24.1614V20.9725ZM12.6562 36.0018V33.4822C14.4687 33.4822 15.9353 34.9203 16.016 36.7201C14.8279 36.6246 13.7173 36.3873 12.6562 36.0018ZM27 32.5625C24.6697 32.5625 22.7812 30.2954 22.7812 27.5C22.7812 24.704 24.6702 22.4375 27 22.4375C29.3298 22.4375 31.2187 24.704 31.2187 27.5C31.2187 30.2965 29.3293 32.5625 27 32.5625ZM41.3437 34.0275C40.4198 33.796 39.4606 33.6662 38.4792 33.5824C38.7888 32.2071 39.9294 31.1629 41.3437 30.9836V34.0275ZM41.3437 21.5763C39.7148 21.3702 38.4507 20.0101 38.4006 18.3305C39.4311 18.445 40.4093 18.6591 41.3437 18.9982V21.5763Z" fill="white"/>
    </g>
    <defs>
      <clipPath id="clip0_82_577">
        <rect width="33.75" height="27" fill="white" transform="translate(10.125 14)"/>
      </clipPath>
    </defs>
</svg>
