<svg width="54" height="54" viewBox="0 0 54 54" fill="none" xmlns="http://www.w3.org/2000/svg">
  <circle cx="27" cy="27" r="27" fill="#E95102"/>
  <path d="M39.7503 21.3334C40.5018 21.3334 41.2224 21.6319 41.7538 22.1632C42.2851 22.6946 42.5837 23.4152 42.5837 24.1667V29.8334C42.5837 30.5848 42.2851 31.3055 41.7538 31.8368C41.2224 32.3682 40.5018 32.6667 39.7503 32.6667H38.2458C37.9007 35.4057 36.5678 37.9245 34.4973 39.7504C32.4267 41.5763 29.7609 42.5836 27.0003 42.5834V39.75C29.2547 39.75 31.4167 38.8545 33.0107 37.2604C34.6048 35.6664 35.5003 33.5044 35.5003 31.25V22.75C35.5003 20.4957 34.6048 18.3337 33.0107 16.7396C31.4167 15.1456 29.2547 14.25 27.0003 14.25C24.746 14.25 22.584 15.1456 20.9899 16.7396C19.3959 18.3337 18.5003 20.4957 18.5003 22.75V32.6667H14.2503C13.4989 32.6667 12.7782 32.3682 12.2469 31.8368C11.7155 31.3055 11.417 30.5848 11.417 29.8334V24.1667C11.417 23.4152 11.7155 22.6946 12.2469 22.1632C12.7782 21.6319 13.4989 21.3334 14.2503 21.3334H15.7548C16.1005 18.5948 17.4337 16.0765 19.5041 14.251C21.5746 12.4255 24.24 11.4182 27.0003 11.4182C29.7606 11.4182 32.4261 12.4255 34.4965 14.251C36.567 16.0765 37.9001 18.5948 38.2458 21.3334H39.7503ZM20.9937 32.3621L22.4953 29.9594C23.8455 30.8054 25.4071 31.2527 27.0003 31.25C28.5936 31.2527 30.1552 30.8054 31.5053 29.9594L33.007 32.3621C31.2069 33.4902 29.1247 34.0868 27.0003 34.0834C24.8759 34.0868 22.7938 33.4902 20.9937 32.3621Z" fill="white"/>
</svg>
