<svg width="54" height="54" viewBox="0 0 54 54" fill="none" xmlns="http://www.w3.org/2000/svg">
  <circle cx="27" cy="27" r="27" fill="#E95102"/>
  <path d="M27 30.5063L29.7271 32.1354C29.9868 32.3007 30.2409 32.295 30.4893 32.1184C30.7376 31.9418 30.8259 31.6996 30.7542 31.3917L30.0458 28.3104L32.4542 26.2208C32.6903 26.0083 32.7611 25.7548 32.6667 25.4601C32.5722 25.1654 32.3597 25.0058 32.0292 24.9812L28.8771 24.7333L27.6375 21.7937C27.5194 21.5104 27.3069 21.3687 27 21.3687C26.6931 21.3687 26.4806 21.5104 26.3625 21.7937L25.1229 24.7333L21.9708 24.9812C21.6403 25.0049 21.4278 25.1645 21.3333 25.4601C21.2389 25.7557 21.3097 26.0093 21.5458 26.2208L23.9542 28.3104L23.2458 31.3917C23.175 31.6986 23.2638 31.9409 23.5122 32.1184C23.7606 32.296 24.0141 32.3016 24.2729 32.1354L27 30.5063ZM22.2542 38.3333H18.5C17.7208 38.3333 17.0541 38.0561 16.4997 37.5017C15.9453 36.9474 15.6676 36.2801 15.6667 35.5V31.7458L12.9396 28.9833C12.6799 28.7 12.4792 28.3874 12.3375 28.0455C12.1958 27.7036 12.125 27.3551 12.125 27C12.125 26.6449 12.1958 26.2969 12.3375 25.9559C12.4792 25.615 12.6799 25.3019 12.9396 25.0167L15.6667 22.2542V18.5C15.6667 17.7208 15.9443 17.0541 16.4997 16.4997C17.055 15.9453 17.7218 15.6676 18.5 15.6667H22.2542L25.0167 12.9396C25.3 12.6799 25.6131 12.4792 25.9559 12.3375C26.2987 12.1958 26.6468 12.125 27 12.125C27.3532 12.125 27.7017 12.1958 28.0455 12.3375C28.3893 12.4792 28.7019 12.6799 28.9833 12.9396L31.7458 15.6667H35.5C36.2792 15.6667 36.9464 15.9443 37.5017 16.4997C38.0571 17.055 38.3343 17.7218 38.3333 18.5V22.2542L41.0604 25.0167C41.3201 25.3 41.5208 25.6131 41.6625 25.9559C41.8042 26.2987 41.875 26.6468 41.875 27C41.875 27.3532 41.8042 27.7017 41.6625 28.0455C41.5208 28.3893 41.3201 28.7019 41.0604 28.9833L38.3333 31.7458V35.5C38.3333 36.2792 38.0561 36.9464 37.5017 37.5017C36.9474 38.0571 36.2801 38.3343 35.5 38.3333H31.7458L28.9833 41.0604C28.7 41.3201 28.3874 41.5208 28.0455 41.6625C27.7036 41.8042 27.3551 41.875 27 41.875C26.6449 41.875 26.2969 41.8042 25.9559 41.6625C25.615 41.5208 25.3019 41.3201 25.0167 41.0604L22.2542 38.3333Z" fill="white"/>
</svg>
